<mxfile host="app.diagrams.net" modified="2024-06-04T14:59:41.838Z" agent="Mozilla/5.0 (Windows NT 10.0; Win64; x64) AppleWebKit/537.36 (KHTML, like Gecko) Chrome/125.0.0.0 Safari/537.36" etag="evCqd3O76K-6uFffoe1T" version="24.4.13" type="device">
  <diagram name="Page-1" id="58cdce13-f638-feb5-8d6f-7d28b1aa9fa0">
    <mxGraphModel dx="2150" dy="1778" grid="1" gridSize="10" guides="1" tooltips="1" connect="1" arrows="1" fold="1" page="1" pageScale="1" pageWidth="1100" pageHeight="850" background="none" math="0" shadow="0">
      <root>
        <mxCell id="0" />
        <mxCell id="1" parent="0" />
        <mxCell id="382b91b5511bd0f7-1" value="" style="ellipse;html=1;shape=startState;fillColor=#000000;strokeColor=#ff0000;rounded=1;shadow=0;comic=0;labelBackgroundColor=none;fontFamily=Verdana;fontSize=12;fontColor=#000000;align=center;direction=south;" parent="1" vertex="1">
          <mxGeometry x="540" y="-230" width="30" height="30" as="geometry" />
        </mxCell>
        <mxCell id="382b91b5511bd0f7-6" value="brak produktu w koszyku" style="rounded=1;whiteSpace=wrap;html=1;arcSize=24;fillColor=#ffffc0;strokeColor=#ff0000;shadow=0;comic=0;labelBackgroundColor=none;fontFamily=Verdana;fontSize=12;fontColor=#000000;align=center;" parent="1" vertex="1">
          <mxGeometry x="495" y="-20" width="120" height="60" as="geometry" />
        </mxCell>
        <mxCell id="382b91b5511bd0f7-7" value="Koszyk niepusty" style="rounded=1;whiteSpace=wrap;html=1;arcSize=24;fillColor=#ffffc0;strokeColor=#ff0000;shadow=0;comic=0;labelBackgroundColor=none;fontFamily=Verdana;fontSize=12;fontColor=#000000;align=center;direction=west;" parent="1" vertex="1">
          <mxGeometry x="850" y="250" width="110" height="60" as="geometry" />
        </mxCell>
        <mxCell id="3cde6dad864a17aa-4" style="edgeStyle=orthogonalEdgeStyle;html=1;exitX=1;exitY=0.5;labelBackgroundColor=none;endArrow=open;endSize=8;strokeColor=#ff0000;fontFamily=Verdana;fontSize=12;align=left;exitDx=0;exitDy=0;entryX=0;entryY=0.5;entryDx=0;entryDy=0;" parent="1" source="382b91b5511bd0f7-6" target="WIWjeD8YtZIgmudjr7Ut-4" edge="1">
          <mxGeometry relative="1" as="geometry">
            <Array as="points">
              <mxPoint x="630" y="10" />
              <mxPoint x="630" y="40" />
            </Array>
            <mxPoint x="930" y="120" as="targetPoint" />
          </mxGeometry>
        </mxCell>
        <mxCell id="WIWjeD8YtZIgmudjr7Ut-3" value="Odczytaj recepte" style="edgeLabel;html=1;align=center;verticalAlign=middle;resizable=0;points=[];" vertex="1" connectable="0" parent="3cde6dad864a17aa-4">
          <mxGeometry x="-0.2244" y="-2" relative="1" as="geometry">
            <mxPoint as="offset" />
          </mxGeometry>
        </mxCell>
        <mxCell id="3cde6dad864a17aa-5" style="edgeStyle=elbowEdgeStyle;html=1;labelBackgroundColor=none;endArrow=open;endSize=8;strokeColor=#ff0000;fontFamily=Verdana;fontSize=12;align=left;exitX=0;exitY=0.75;exitDx=0;exitDy=0;entryX=1;entryY=0.5;entryDx=0;entryDy=0;" parent="1" source="382b91b5511bd0f7-7" target="WIWjeD8YtZIgmudjr7Ut-4" edge="1">
          <mxGeometry relative="1" as="geometry">
            <mxPoint x="960" y="280" as="sourcePoint" />
            <mxPoint x="1050" y="265" as="targetPoint" />
            <Array as="points">
              <mxPoint x="1070" y="160" />
            </Array>
          </mxGeometry>
        </mxCell>
        <mxCell id="WIWjeD8YtZIgmudjr7Ut-23" value="Odczytaj recepte" style="edgeLabel;html=1;align=center;verticalAlign=middle;resizable=0;points=[];" vertex="1" connectable="0" parent="3cde6dad864a17aa-5">
          <mxGeometry x="-0.4256" y="-3" relative="1" as="geometry">
            <mxPoint x="14" y="2" as="offset" />
          </mxGeometry>
        </mxCell>
        <mxCell id="2a3bc250acf0617d-9" style="edgeStyle=orthogonalEdgeStyle;html=1;labelBackgroundColor=none;endArrow=open;endSize=8;strokeColor=#ff0000;fontFamily=Verdana;fontSize=12;align=left;" parent="1" source="382b91b5511bd0f7-1" target="382b91b5511bd0f7-6" edge="1">
          <mxGeometry relative="1" as="geometry" />
        </mxCell>
        <mxCell id="2a3bc250acf0617d-11" style="edgeStyle=orthogonalEdgeStyle;html=1;labelBackgroundColor=none;endArrow=open;endSize=8;strokeColor=#ff0000;fontFamily=Verdana;fontSize=12;align=left;exitX=0.5;exitY=1;entryX=1;entryY=0.5;entryDx=0;entryDy=0;" parent="1" source="382b91b5511bd0f7-7" target="WIWjeD8YtZIgmudjr7Ut-83" edge="1">
          <mxGeometry relative="1" as="geometry">
            <mxPoint x="520" y="300" as="sourcePoint" />
            <Array as="points">
              <mxPoint x="840" y="250" />
              <mxPoint x="840" y="200" />
              <mxPoint x="830" y="200" />
              <mxPoint x="830" y="155" />
            </Array>
            <mxPoint x="684" y="139.69999999999982" as="targetPoint" />
          </mxGeometry>
        </mxCell>
        <mxCell id="WIWjeD8YtZIgmudjr7Ut-10" value="Usuń przedmiot z koszyka" style="edgeLabel;html=1;align=center;verticalAlign=middle;resizable=0;points=[];" vertex="1" connectable="0" parent="2a3bc250acf0617d-11">
          <mxGeometry x="-0.4732" y="1" relative="1" as="geometry">
            <mxPoint x="-10" y="-51" as="offset" />
          </mxGeometry>
        </mxCell>
        <mxCell id="3cde6dad864a17aa-6" style="edgeStyle=elbowEdgeStyle;html=1;labelBackgroundColor=none;endArrow=open;endSize=8;strokeColor=#ff0000;fontFamily=Verdana;fontSize=12;align=left;exitX=1;exitY=0.5;exitDx=0;exitDy=0;elbow=vertical;entryX=1;entryY=0.5;entryDx=0;entryDy=0;" parent="1" source="382b91b5511bd0f7-7" target="WIWjeD8YtZIgmudjr7Ut-35" edge="1">
          <mxGeometry relative="1" as="geometry">
            <mxPoint x="770" y="257.5" as="sourcePoint" />
            <mxPoint x="480" y="283" as="targetPoint" />
            <Array as="points">
              <mxPoint x="670" y="255" />
            </Array>
          </mxGeometry>
        </mxCell>
        <mxCell id="WIWjeD8YtZIgmudjr7Ut-28" value="Finalizuj sprzedaż" style="edgeLabel;html=1;align=center;verticalAlign=middle;resizable=0;points=[];" vertex="1" connectable="0" parent="3cde6dad864a17aa-6">
          <mxGeometry x="-0.1642" y="-1" relative="1" as="geometry">
            <mxPoint as="offset" />
          </mxGeometry>
        </mxCell>
        <mxCell id="WIWjeD8YtZIgmudjr7Ut-47" value="PaymentCount=0" style="edgeLabel;html=1;align=center;verticalAlign=middle;resizable=0;points=[];" vertex="1" connectable="0" parent="3cde6dad864a17aa-6">
          <mxGeometry x="0.4794" y="1" relative="1" as="geometry">
            <mxPoint as="offset" />
          </mxGeometry>
        </mxCell>
        <mxCell id="WIWjeD8YtZIgmudjr7Ut-4" value="Istnieje pozycja recepty" style="rhombus;whiteSpace=wrap;html=1;fontColor=#000000;fillColor=#ffffc0;strokeColor=#ff0000;" vertex="1" parent="1">
          <mxGeometry x="890" y="-5" width="120" height="90" as="geometry" />
        </mxCell>
        <mxCell id="WIWjeD8YtZIgmudjr7Ut-5" value="no" style="edgeStyle=orthogonalEdgeStyle;html=1;align=left;verticalAlign=bottom;endArrow=open;endSize=8;strokeColor=#ff0000;rounded=0;entryX=1;entryY=0;entryDx=0;entryDy=0;" edge="1" source="WIWjeD8YtZIgmudjr7Ut-4" parent="1" target="WIWjeD8YtZIgmudjr7Ut-83">
          <mxGeometry x="-1" relative="1" as="geometry">
            <mxPoint x="685" y="154.99999999999977" as="targetPoint" />
            <Array as="points">
              <mxPoint x="950" y="-100" />
              <mxPoint x="800" y="-100" />
              <mxPoint x="800" y="155" />
              <mxPoint x="755" y="155" />
            </Array>
          </mxGeometry>
        </mxCell>
        <mxCell id="WIWjeD8YtZIgmudjr7Ut-6" value="yes" style="edgeStyle=orthogonalEdgeStyle;html=1;align=left;verticalAlign=top;endArrow=open;endSize=8;strokeColor=#ff0000;rounded=0;entryX=0.5;entryY=1;entryDx=0;entryDy=0;" edge="1" source="WIWjeD8YtZIgmudjr7Ut-4" parent="1" target="382b91b5511bd0f7-7">
          <mxGeometry x="-1" relative="1" as="geometry">
            <mxPoint x="905" y="180" as="targetPoint" />
            <Array as="points">
              <mxPoint x="950" y="180" />
              <mxPoint x="905" y="180" />
            </Array>
          </mxGeometry>
        </mxCell>
        <mxCell id="WIWjeD8YtZIgmudjr7Ut-8" value="Dodaj przedmiot do koszyka" style="edgeLabel;html=1;align=center;verticalAlign=middle;resizable=0;points=[];" vertex="1" connectable="0" parent="WIWjeD8YtZIgmudjr7Ut-6">
          <mxGeometry x="-0.1885" y="1" relative="1" as="geometry">
            <mxPoint as="offset" />
          </mxGeometry>
        </mxCell>
        <mxCell id="WIWjeD8YtZIgmudjr7Ut-12" value="" style="edgeStyle=orthogonalEdgeStyle;html=1;verticalAlign=bottom;endArrow=open;endSize=8;strokeColor=#ff0000;rounded=0;entryX=0.75;entryY=1;entryDx=0;entryDy=0;exitX=0;exitY=1;exitDx=0;exitDy=0;" edge="1" source="WIWjeD8YtZIgmudjr7Ut-83" parent="1" target="382b91b5511bd0f7-7">
          <mxGeometry relative="1" as="geometry">
            <mxPoint x="860" y="250" as="targetPoint" />
            <mxPoint x="680" y="180.00000000000023" as="sourcePoint" />
            <Array as="points">
              <mxPoint x="695" y="180" />
              <mxPoint x="610" y="180" />
              <mxPoint x="610" y="90" />
              <mxPoint x="878" y="90" />
            </Array>
          </mxGeometry>
        </mxCell>
        <mxCell id="WIWjeD8YtZIgmudjr7Ut-85" value="no" style="edgeLabel;html=1;align=center;verticalAlign=middle;resizable=0;points=[];" vertex="1" connectable="0" parent="WIWjeD8YtZIgmudjr7Ut-12">
          <mxGeometry x="-0.875" y="2" relative="1" as="geometry">
            <mxPoint as="offset" />
          </mxGeometry>
        </mxCell>
        <mxCell id="WIWjeD8YtZIgmudjr7Ut-15" value="" style="edgeStyle=orthogonalEdgeStyle;html=1;verticalAlign=bottom;endArrow=open;endSize=8;strokeColor=#ff0000;rounded=0;entryX=0.75;entryY=1;entryDx=0;entryDy=0;exitX=0;exitY=0;exitDx=0;exitDy=0;" edge="1" parent="1" source="WIWjeD8YtZIgmudjr7Ut-83" target="382b91b5511bd0f7-6">
          <mxGeometry relative="1" as="geometry">
            <mxPoint x="570" y="140" as="targetPoint" />
            <mxPoint x="680" y="140" as="sourcePoint" />
            <Array as="points">
              <mxPoint x="695" y="130" />
              <mxPoint x="585" y="130" />
            </Array>
          </mxGeometry>
        </mxCell>
        <mxCell id="WIWjeD8YtZIgmudjr7Ut-84" value="yes" style="edgeLabel;html=1;align=center;verticalAlign=middle;resizable=0;points=[];" vertex="1" connectable="0" parent="WIWjeD8YtZIgmudjr7Ut-15">
          <mxGeometry x="-0.5949" y="-5" relative="1" as="geometry">
            <mxPoint as="offset" />
          </mxGeometry>
        </mxCell>
        <mxCell id="WIWjeD8YtZIgmudjr7Ut-34" value="Płatność" style="swimlane;fontStyle=1;align=center;verticalAlign=middle;childLayout=stackLayout;horizontal=1;startSize=30;horizontalStack=0;resizeParent=0;resizeLast=1;container=0;fontColor=#000000;collapsible=0;rounded=1;arcSize=30;strokeColor=#ff0000;fillColor=#ffffc0;swimlaneFillColor=#ffffc0;dropTarget=0;" vertex="1" parent="1">
          <mxGeometry x="320" y="190" width="160" height="100" as="geometry" />
        </mxCell>
        <mxCell id="WIWjeD8YtZIgmudjr7Ut-35" value="Przerwij transakcje&lt;div&gt;Wydrukuj potwierdzenie&lt;/div&gt;" style="text;html=1;strokeColor=none;fillColor=none;align=center;verticalAlign=middle;spacingLeft=4;spacingRight=4;whiteSpace=wrap;overflow=hidden;rotatable=0;fontColor=#000000;" vertex="1" parent="WIWjeD8YtZIgmudjr7Ut-34">
          <mxGeometry y="30" width="160" height="70" as="geometry" />
        </mxCell>
        <mxCell id="WIWjeD8YtZIgmudjr7Ut-39" value="" style="edgeStyle=orthogonalEdgeStyle;html=1;verticalAlign=bottom;endArrow=open;endSize=8;strokeColor=#ff0000;rounded=0;entryX=0.697;entryY=0.61;entryDx=0;entryDy=0;entryPerimeter=0;" edge="1" parent="1" target="WIWjeD8YtZIgmudjr7Ut-86">
          <mxGeometry relative="1" as="geometry">
            <mxPoint x="650" y="470" as="targetPoint" />
            <mxPoint x="320" y="75" as="sourcePoint" />
            <Array as="points">
              <mxPoint x="371" y="75" />
            </Array>
          </mxGeometry>
        </mxCell>
        <mxCell id="WIWjeD8YtZIgmudjr7Ut-40" value="Wykonaj płatność" style="edgeLabel;html=1;align=center;verticalAlign=middle;resizable=0;points=[];" vertex="1" connectable="0" parent="WIWjeD8YtZIgmudjr7Ut-39">
          <mxGeometry x="0.1043" y="-1" relative="1" as="geometry">
            <mxPoint y="-1" as="offset" />
          </mxGeometry>
        </mxCell>
        <mxCell id="WIWjeD8YtZIgmudjr7Ut-41" value="PaymentCount&amp;gt;=3" style="rhombus;whiteSpace=wrap;html=1;fontColor=#000000;fillColor=#ffffc0;strokeColor=#ff0000;" vertex="1" parent="1">
          <mxGeometry x="340" y="530" width="120" height="80" as="geometry" />
        </mxCell>
        <mxCell id="WIWjeD8YtZIgmudjr7Ut-42" value="yes" style="edgeStyle=orthogonalEdgeStyle;html=1;align=left;verticalAlign=bottom;endArrow=open;endSize=8;strokeColor=#ff0000;rounded=0;entryX=0;entryY=0.5;entryDx=0;entryDy=0;" edge="1" source="WIWjeD8YtZIgmudjr7Ut-41" parent="1" target="WIWjeD8YtZIgmudjr7Ut-48">
          <mxGeometry x="-1" relative="1" as="geometry">
            <mxPoint x="670" y="370" as="targetPoint" />
            <Array as="points" />
          </mxGeometry>
        </mxCell>
        <mxCell id="WIWjeD8YtZIgmudjr7Ut-49" value="EndTransaction()" style="edgeLabel;html=1;align=center;verticalAlign=middle;resizable=0;points=[];" vertex="1" connectable="0" parent="WIWjeD8YtZIgmudjr7Ut-42">
          <mxGeometry x="0.3515" y="2" relative="1" as="geometry">
            <mxPoint as="offset" />
          </mxGeometry>
        </mxCell>
        <mxCell id="WIWjeD8YtZIgmudjr7Ut-43" value="no" style="edgeStyle=orthogonalEdgeStyle;html=1;align=left;verticalAlign=top;endArrow=open;endSize=8;strokeColor=#ff0000;rounded=0;entryX=0;entryY=0.25;entryDx=0;entryDy=0;" edge="1" source="WIWjeD8YtZIgmudjr7Ut-41" parent="1" target="WIWjeD8YtZIgmudjr7Ut-35">
          <mxGeometry x="-1" relative="1" as="geometry">
            <mxPoint x="240" y="230" as="targetPoint" />
            <Array as="points">
              <mxPoint x="220" y="570" />
              <mxPoint x="220" y="238" />
            </Array>
          </mxGeometry>
        </mxCell>
        <mxCell id="WIWjeD8YtZIgmudjr7Ut-45" value="PaymentCount++" style="edgeLabel;html=1;align=center;verticalAlign=middle;resizable=0;points=[];" vertex="1" connectable="0" parent="WIWjeD8YtZIgmudjr7Ut-43">
          <mxGeometry x="0.0582" y="3" relative="1" as="geometry">
            <mxPoint y="1" as="offset" />
          </mxGeometry>
        </mxCell>
        <mxCell id="WIWjeD8YtZIgmudjr7Ut-48" value="" style="ellipse;html=1;shape=endState;fillColor=#000000;strokeColor=#ff0000;" vertex="1" parent="1">
          <mxGeometry x="710" y="355" width="30" height="30" as="geometry" />
        </mxCell>
        <mxCell id="WIWjeD8YtZIgmudjr7Ut-53" value="" style="edgeStyle=orthogonalEdgeStyle;html=1;verticalAlign=bottom;endArrow=open;endSize=8;strokeColor=#ff0000;rounded=0;entryX=0.5;entryY=0;entryDx=0;entryDy=0;exitX=0;exitY=1;exitDx=0;exitDy=0;" edge="1" source="WIWjeD8YtZIgmudjr7Ut-92" parent="1" target="WIWjeD8YtZIgmudjr7Ut-41">
          <mxGeometry relative="1" as="geometry">
            <mxPoint x="330" y="435" as="targetPoint" />
            <mxPoint x="330.05882352941194" y="364.9999999999998" as="sourcePoint" />
            <Array as="points">
              <mxPoint x="370" y="510" />
              <mxPoint x="400" y="510" />
            </Array>
          </mxGeometry>
        </mxCell>
        <mxCell id="WIWjeD8YtZIgmudjr7Ut-58" value="yes" style="edgeLabel;html=1;align=center;verticalAlign=middle;resizable=0;points=[];" vertex="1" connectable="0" parent="WIWjeD8YtZIgmudjr7Ut-53">
          <mxGeometry x="-0.1782" y="-4" relative="1" as="geometry">
            <mxPoint x="4" y="-23" as="offset" />
          </mxGeometry>
        </mxCell>
        <mxCell id="WIWjeD8YtZIgmudjr7Ut-54" value="" style="edgeStyle=orthogonalEdgeStyle;html=1;verticalAlign=bottom;endArrow=open;endSize=8;strokeColor=#ff0000;rounded=0;exitX=0.997;exitY=0.601;exitDx=0;exitDy=0;exitPerimeter=0;" edge="1" parent="1" source="WIWjeD8YtZIgmudjr7Ut-92">
          <mxGeometry relative="1" as="geometry">
            <mxPoint x="479" y="460" as="targetPoint" />
            <mxPoint x="478.82" y="365" as="sourcePoint" />
          </mxGeometry>
        </mxCell>
        <mxCell id="WIWjeD8YtZIgmudjr7Ut-59" value="no" style="edgeLabel;html=1;align=center;verticalAlign=middle;resizable=0;points=[];" vertex="1" connectable="0" parent="WIWjeD8YtZIgmudjr7Ut-54">
          <mxGeometry x="-0.2669" y="-3" relative="1" as="geometry">
            <mxPoint as="offset" />
          </mxGeometry>
        </mxCell>
        <mxCell id="WIWjeD8YtZIgmudjr7Ut-60" value="" style="ellipse;html=1;shape=endState;fillColor=#000000;strokeColor=#ff0000;" vertex="1" parent="1">
          <mxGeometry x="465" y="460" width="30" height="30" as="geometry" />
        </mxCell>
        <mxCell id="WIWjeD8YtZIgmudjr7Ut-61" style="edgeStyle=elbowEdgeStyle;html=1;labelBackgroundColor=none;endArrow=open;endSize=8;strokeColor=#ff0000;fontFamily=Verdana;fontSize=12;align=left;exitX=0.25;exitY=0;exitDx=0;exitDy=0;entryX=0;entryY=0.5;entryDx=0;entryDy=0;" edge="1" parent="1" source="382b91b5511bd0f7-7" target="WIWjeD8YtZIgmudjr7Ut-96">
          <mxGeometry relative="1" as="geometry">
            <mxPoint x="880.272727272727" y="488" as="sourcePoint" />
            <mxPoint x="940" y="400" as="targetPoint" />
            <Array as="points">
              <mxPoint x="930" y="400" />
            </Array>
          </mxGeometry>
        </mxCell>
        <mxCell id="WIWjeD8YtZIgmudjr7Ut-62" value="Edytuj Koszyk" style="edgeLabel;html=1;align=center;verticalAlign=middle;resizable=0;points=[];" vertex="1" connectable="0" parent="WIWjeD8YtZIgmudjr7Ut-61">
          <mxGeometry x="-0.6392" y="1" relative="1" as="geometry">
            <mxPoint y="1" as="offset" />
          </mxGeometry>
        </mxCell>
        <mxCell id="WIWjeD8YtZIgmudjr7Ut-64" value="" style="edgeStyle=orthogonalEdgeStyle;html=1;verticalAlign=bottom;endArrow=open;endSize=8;strokeColor=#ff0000;rounded=0;entryX=0.5;entryY=1;entryDx=0;entryDy=0;exitX=1;exitY=0;exitDx=0;exitDy=0;" edge="1" source="WIWjeD8YtZIgmudjr7Ut-96" parent="1" target="WIWjeD8YtZIgmudjr7Ut-76">
          <mxGeometry relative="1" as="geometry">
            <mxPoint x="1200" y="310" as="targetPoint" />
            <mxPoint x="1020" y="365.00117647058806" as="sourcePoint" />
            <Array as="points">
              <mxPoint x="1020" y="365" />
              <mxPoint x="1330" y="365" />
            </Array>
          </mxGeometry>
        </mxCell>
        <mxCell id="WIWjeD8YtZIgmudjr7Ut-65" value="yes" style="edgeLabel;html=1;align=center;verticalAlign=middle;resizable=0;points=[];" vertex="1" connectable="0" parent="WIWjeD8YtZIgmudjr7Ut-64">
          <mxGeometry x="-0.7268" relative="1" as="geometry">
            <mxPoint x="7" as="offset" />
          </mxGeometry>
        </mxCell>
        <mxCell id="WIWjeD8YtZIgmudjr7Ut-66" value="" style="edgeStyle=orthogonalEdgeStyle;html=1;verticalAlign=bottom;endArrow=open;endSize=8;strokeColor=#ff0000;rounded=0;entryX=0.75;entryY=0;entryDx=0;entryDy=0;exitX=1;exitY=1;exitDx=0;exitDy=0;" edge="1" parent="1" source="WIWjeD8YtZIgmudjr7Ut-96" target="382b91b5511bd0f7-7">
          <mxGeometry relative="1" as="geometry">
            <mxPoint x="840" y="460" as="targetPoint" />
            <mxPoint x="1020" y="410.06117647058807" as="sourcePoint" />
            <Array as="points">
              <mxPoint x="1020" y="440" />
              <mxPoint x="1150" y="440" />
              <mxPoint x="1150" y="490" />
              <mxPoint x="878" y="490" />
            </Array>
          </mxGeometry>
        </mxCell>
        <mxCell id="WIWjeD8YtZIgmudjr7Ut-67" value="no" style="edgeLabel;html=1;align=center;verticalAlign=middle;resizable=0;points=[];" vertex="1" connectable="0" parent="WIWjeD8YtZIgmudjr7Ut-66">
          <mxGeometry x="-0.7268" relative="1" as="geometry">
            <mxPoint x="-21" as="offset" />
          </mxGeometry>
        </mxCell>
        <mxCell id="WIWjeD8YtZIgmudjr7Ut-68" value="ErrorMessage(exists)" style="edgeLabel;html=1;align=center;verticalAlign=middle;resizable=0;points=[];" vertex="1" connectable="0" parent="WIWjeD8YtZIgmudjr7Ut-66">
          <mxGeometry x="0.1069" y="-2" relative="1" as="geometry">
            <mxPoint as="offset" />
          </mxGeometry>
        </mxCell>
        <mxCell id="WIWjeD8YtZIgmudjr7Ut-75" value="EdycjaKoszyka" style="swimlane;fontStyle=1;align=center;verticalAlign=middle;childLayout=stackLayout;horizontal=1;startSize=30;horizontalStack=0;resizeParent=0;resizeLast=1;container=0;fontColor=#000000;collapsible=0;rounded=1;arcSize=30;strokeColor=#ff0000;fillColor=#ffffc0;swimlaneFillColor=#ffffc0;dropTarget=0;" vertex="1" parent="1">
          <mxGeometry x="1250" y="195" width="160" height="105" as="geometry" />
        </mxCell>
        <mxCell id="WIWjeD8YtZIgmudjr7Ut-76" value="Edytuj ilosc&lt;div&gt;Edytuj rozmiar pudełka&lt;/div&gt;&lt;div&gt;Edytuj zniżkę&lt;/div&gt;&lt;div&gt;Edytuj dla kogo&lt;/div&gt;" style="text;html=1;strokeColor=none;fillColor=none;align=center;verticalAlign=middle;spacingLeft=4;spacingRight=4;whiteSpace=wrap;overflow=hidden;rotatable=0;fontColor=#000000;" vertex="1" parent="WIWjeD8YtZIgmudjr7Ut-75">
          <mxGeometry y="30" width="160" height="75" as="geometry" />
        </mxCell>
        <mxCell id="WIWjeD8YtZIgmudjr7Ut-78" value="Edytuj ilosc&lt;div&gt;Edytuj rozmiar pudełka&lt;/div&gt;&lt;div&gt;Edytuj zniżkę&lt;/div&gt;&lt;div&gt;Edytuj dla kogo&lt;/div&gt;" style="text;html=1;strokeColor=none;fillColor=none;align=center;verticalAlign=middle;spacingLeft=4;spacingRight=4;whiteSpace=wrap;overflow=hidden;rotatable=0;fontColor=#000000;" vertex="1" parent="WIWjeD8YtZIgmudjr7Ut-75">
          <mxGeometry y="105" width="160" as="geometry" />
        </mxCell>
        <mxCell id="WIWjeD8YtZIgmudjr7Ut-79" style="edgeStyle=elbowEdgeStyle;html=1;labelBackgroundColor=none;endArrow=open;endSize=8;strokeColor=#ff0000;fontFamily=Verdana;fontSize=12;align=left;exitX=0;exitY=0;exitDx=0;exitDy=0;entryX=0;entryY=0.25;entryDx=0;entryDy=0;" edge="1" parent="1" source="WIWjeD8YtZIgmudjr7Ut-76" target="382b91b5511bd0f7-7">
          <mxGeometry relative="1" as="geometry">
            <mxPoint x="1130.392727272727" y="320" as="sourcePoint" />
            <mxPoint x="990" y="310" as="targetPoint" />
            <Array as="points">
              <mxPoint x="1140" y="310" />
            </Array>
          </mxGeometry>
        </mxCell>
        <mxCell id="WIWjeD8YtZIgmudjr7Ut-80" value="FinishEdition()" style="edgeLabel;html=1;align=center;verticalAlign=middle;resizable=0;points=[];" vertex="1" connectable="0" parent="WIWjeD8YtZIgmudjr7Ut-79">
          <mxGeometry x="-0.5528" y="-1" relative="1" as="geometry">
            <mxPoint x="20" y="1" as="offset" />
          </mxGeometry>
        </mxCell>
        <mxCell id="WIWjeD8YtZIgmudjr7Ut-82" value="&lt;h1 style=&quot;margin-top: 0px;&quot;&gt;Diagram Stanu #1&lt;/h1&gt;&lt;div&gt;Przedstawia on zachowanie obiektów recepta, pacjent oraz koszyk, w procesie realizacji recept w aptece / aptece online&lt;/div&gt;" style="text;html=1;whiteSpace=wrap;overflow=hidden;rounded=0;" vertex="1" parent="1">
          <mxGeometry x="600" y="-250" width="220" height="120" as="geometry" />
        </mxCell>
        <mxCell id="WIWjeD8YtZIgmudjr7Ut-83" value="isEmpty(Cart)==1" style="rhombus;whiteSpace=wrap;html=1;fontColor=#000000;fillColor=#ffffc0;strokeColor=#ff0000;" vertex="1" parent="1">
          <mxGeometry x="665" y="115" width="120" height="80" as="geometry" />
        </mxCell>
        <mxCell id="WIWjeD8YtZIgmudjr7Ut-86" value="" style="shape=line;html=1;strokeWidth=6;strokeColor=#ff0000;" vertex="1" parent="1">
          <mxGeometry x="280" y="130" width="130" height="10" as="geometry" />
        </mxCell>
        <mxCell id="WIWjeD8YtZIgmudjr7Ut-87" value="" style="edgeStyle=orthogonalEdgeStyle;html=1;verticalAlign=bottom;endArrow=open;endSize=8;strokeColor=#ff0000;rounded=0;entryX=0.5;entryY=0;entryDx=0;entryDy=0;" edge="1" source="WIWjeD8YtZIgmudjr7Ut-86" parent="1" target="WIWjeD8YtZIgmudjr7Ut-34">
          <mxGeometry relative="1" as="geometry">
            <mxPoint x="320" y="190" as="targetPoint" />
            <Array as="points">
              <mxPoint x="400" y="170" />
              <mxPoint x="400" y="170" />
            </Array>
          </mxGeometry>
        </mxCell>
        <mxCell id="WIWjeD8YtZIgmudjr7Ut-90" value="InitializePaymentUI()" style="edgeLabel;html=1;align=center;verticalAlign=middle;resizable=0;points=[];" vertex="1" connectable="0" parent="WIWjeD8YtZIgmudjr7Ut-87">
          <mxGeometry x="-0.1639" y="2" relative="1" as="geometry">
            <mxPoint x="-2" y="-6" as="offset" />
          </mxGeometry>
        </mxCell>
        <mxCell id="WIWjeD8YtZIgmudjr7Ut-88" value="" style="edgeStyle=orthogonalEdgeStyle;html=1;verticalAlign=bottom;endArrow=open;endSize=8;strokeColor=#ff0000;rounded=0;entryX=0;entryY=0.25;entryDx=0;entryDy=0;" edge="1" parent="1" target="WIWjeD8YtZIgmudjr7Ut-34">
          <mxGeometry relative="1" as="geometry">
            <mxPoint x="290" y="210" as="targetPoint" />
            <mxPoint x="290" y="140" as="sourcePoint" />
            <Array as="points">
              <mxPoint x="290" y="215" />
            </Array>
          </mxGeometry>
        </mxCell>
        <mxCell id="WIWjeD8YtZIgmudjr7Ut-89" value="InitializeSecurePaymentConnection()" style="edgeLabel;html=1;align=center;verticalAlign=middle;resizable=0;points=[];" vertex="1" connectable="0" parent="WIWjeD8YtZIgmudjr7Ut-88">
          <mxGeometry x="-0.6281" y="3" relative="1" as="geometry">
            <mxPoint x="2" y="11" as="offset" />
          </mxGeometry>
        </mxCell>
        <mxCell id="WIWjeD8YtZIgmudjr7Ut-93" value="" style="edgeStyle=orthogonalEdgeStyle;html=1;verticalAlign=bottom;endArrow=open;endSize=8;strokeColor=#ff0000;rounded=0;" edge="1" parent="1" target="WIWjeD8YtZIgmudjr7Ut-92">
          <mxGeometry relative="1" as="geometry">
            <mxPoint x="394.40999999999997" y="360" as="targetPoint" />
            <mxPoint x="394.40999999999997" y="290" as="sourcePoint" />
          </mxGeometry>
        </mxCell>
        <mxCell id="WIWjeD8YtZIgmudjr7Ut-94" value="&lt;span style=&quot;color: rgba(0, 0, 0, 0); font-family: monospace; font-size: 0px; text-align: start; background-color: rgb(251, 251, 251);&quot;&gt;%3CmxGraphModel%3E%3Croot%3E%3CmxCell%20id%3D%220%22%2F%3E%3CmxCell%20id%3D%221%22%20parent%3D%220%22%2F%3E%3CmxCell%20id%3D%222%22%20value%3D%22%22%20style%3D%22edgeStyle%3DorthogonalEdgeStyle%3Bhtml%3D1%3BverticalAlign%3Dbottom%3BendArrow%3Dopen%3BendSize%3D8%3BstrokeColor%3D%23ff0000%3Brounded%3D0%3B%22%20edge%3D%221%22%20parent%3D%221%22%3E%3CmxGeometry%20relative%3D%221%22%20as%3D%22geometry%22%3E%3CmxPoint%20x%3D%22478.82%22%20y%3D%22435%22%20as%3D%22targetPoint%22%2F%3E%3CmxPoint%20x%3D%22478.82%22%20y%3D%22365%22%20as%3D%22sourcePoint%22%2F%3E%3C%2FmxGeometry%3E%3C%2FmxCell%3E%3C%2Froot%3E%3C%2FmxGraphModel%3EP&lt;/span&gt;" style="edgeLabel;html=1;align=center;verticalAlign=middle;resizable=0;points=[];" vertex="1" connectable="0" parent="WIWjeD8YtZIgmudjr7Ut-93">
          <mxGeometry x="-0.1745" y="2" relative="1" as="geometry">
            <mxPoint y="-1" as="offset" />
          </mxGeometry>
        </mxCell>
        <mxCell id="WIWjeD8YtZIgmudjr7Ut-92" value="PaymentFailure==1" style="rhombus;whiteSpace=wrap;html=1;fontColor=#000000;fillColor=#ffffc0;strokeColor=#ff0000;" vertex="1" parent="1">
          <mxGeometry x="340" y="310" width="120" height="80" as="geometry" />
        </mxCell>
        <mxCell id="WIWjeD8YtZIgmudjr7Ut-96" value="exists(Cart.position)" style="rhombus;whiteSpace=wrap;html=1;fontColor=#000000;fillColor=#ffffc0;strokeColor=#ff0000;" vertex="1" parent="1">
          <mxGeometry x="940" y="355" width="120" height="80" as="geometry" />
        </mxCell>
        <mxCell id="WIWjeD8YtZIgmudjr7Ut-98" value="Decyzja Pacjenta" style="rounded=1;whiteSpace=wrap;html=1;arcSize=40;fontColor=#000000;fillColor=#ffffc0;strokeColor=#ff0000;" vertex="1" parent="1">
          <mxGeometry x="200" y="50" width="120" height="40" as="geometry" />
        </mxCell>
      </root>
    </mxGraphModel>
  </diagram>
</mxfile>
